#!OML:ASF H:\LiuWeirdWalks\Patient Classification 1\Patient 1\Session 1\male.ASF
:FULLY-SPECIFIED
:DEGREES
490
root 2.19982 17.6376 6.87446 3.92072 5.11705 6.33973
lowerback 6.60383 -2.08241 -8.47924
upperback -0.608354 -3.37904 1.90879
thorax -3.74501 -1.48599 7.09752
lowerneck -19.1282 3.3674 5.96335
upperneck 9.08956 3.84457 -6.05834
head 6.08962 1.58463 -2.49666
rclavicle -2.88238e-015 1.66979e-014
rhumerus -34.2073 -16.3016 -70.8631
rradius 22.592
rwrist -2.85318
rhand -17.8827 -1.49526
rfingers 7.12502
rthumb 8.38353 -31.3089
lclavicle -2.88238e-015 1.66979e-014
lhumerus -23.1073 -5.82376 90.1668
lradius 42.198
lwrist 9.97845
lhand -16.0619 -0.79329
lfingers 7.12502
lthumb 10.1404 28.9423
rfemur -39.808 -2.26958 10.6264
rtibia 28.1565
rfoot -10.3642 -19.4211
rtoes -10.6912
lfemur 9.21433 -1.42514 -29.2055
ltibia 9.93516
lfoot -14.4731 11.7153
ltoes -10.2819
491
root 2.19475 17.6031 7.02921 4.05193 5.21691 6.4998
lowerback 6.68416 -2.08775 -8.56908
upperback -0.571817 -3.39937 1.90162
thorax -3.74369 -1.4956 7.14593
lowerneck -19.2229 3.4201 6.01607
upperneck 8.87262 3.90049 -6.1521
head 6.04206 1.60511 -2.52835
rclavicle 1.71949e-014 -3.18055e-015
rhumerus -34.2086 -16.4322 -70.7178
rradius 22.4313
rwrist -2.66392
rhand -17.996 -1.46071
rfingers 7.12502
rthumb 8.27415 -31.2787
lclavicle 1.71949e-014 -3.18055e-015
lhumerus -23.2167 -6.06081 90.4091
lradius 42.641
lwrist 9.97091
lhand -15.9562 -0.963898
lfingers 7.12502
lthumb 10.2424 28.7667
rfemur -40.328 -2.33501 10.4623
rtibia 28.5557
rfoot -10.107 -19.1363
rtoes -10.6905
lfemur 10.0694 -1.54419 -29.3328
ltibia 9.14314
lfoot -14.4117 11.7779
ltoes -10.6508
492
root 2.18874 17.5657 7.1869 4.17012 5.3154 6.66075
lowerback 6.76521 -2.10187 -8.66968
upperback -0.523973 -3.43192 1.8976
thorax -3.72768 -1.51225 7.20442
lowerneck -19.352 3.48272 6.07105
upperneck 8.69202 3.96706 -6.23612
head 6.0122 1.63089 -2.55588
rclavicle 5.27773e-014 1.59028e-014
rhumerus -34.1775 -16.5211 -70.6141
rradius 22.3122
rwrist -2.5616
rhand -18.0891 -1.50422
rfingers 7.12502
rthumb 8.18434 -31.3257
lclavicle 5.27773e-014 1.59028e-014
lhumerus -23.3408 -6.26086 90.6358
lradius 43.0439
lwrist 9.90234
lhand -15.8134 -1.1381
lfingers 7.12502
lthumb 10.3802 28.5857
rfemur -40.84 -2.40439 10.3084
rtibia 29.1831
rfoot -9.83525 -18.8493
rtoes -10.5921
lfemur 10.9618 -1.6605 -29.4606
ltibia 8.33542
lfoot -14.3471 11.8428
ltoes -11.0252
493
root 2.18143 17.5256 7.34859 4.27716 5.42451 6.82353
lowerback 6.83537 -2.1264 -8.7857
upperback -0.468607 -3.47825 1.89931
thorax -3.69364 -1.53673 7.27795
lowerneck -19.5159 3.53953 6.09736
upperneck 8.56359 4.02897 -6.28966
head 6.00302 1.65504 -2.56926
rclavicle -2.77305e-014 -1.11319e-014
rhumerus -34.1104 -16.6324 -70.5145
rradius 22.1892
rwrist -2.45225
rhand -18.1472 -1.59075
rfingers 7.12502
rthumb 8.12832 -31.4144
lclavicle -2.77305e-014 -1.11319e-014
lhumerus -23.4875 -6.43539 90.8577
lradius 43.398
lwrist 9.78252
lhand -15.6566 -1.30852
lfingers 7.12502
lthumb 10.5314 28.4076
rfemur -41.3379 -2.46757 10.1546
rtibia 30.0235
rfoot -9.5448 -18.5799
rtoes -10.4439
lfemur 11.9044 -1.78672 -29.5871
ltibia 7.48932
lfoot -14.2685 11.9113
ltoes -11.4109
494
root 2.17223 17.4831 7.51394 4.3845 5.54425 6.97987
lowerback 6.88359 -2.15974 -8.91374
upperback -0.414109 -3.53509 1.91023
thorax -3.64465 -1.56703 7.36768
lowerneck -19.6576 3.59651 6.13312
upperneck 8.43323 4.09108 -6.35338
head 5.99014 1.67918 -2.58755
rclavicle 1.45113e-014 -8.74653e-015
rhumerus -34.0381 -16.7306 -70.4287
rradius 22.0987
rwrist -2.3646
rhand -18.1862 -1.68851
rfingers 7.12502
rthumb 8.09065 -31.5136
lclavicle 1.45113e-014 -8.74653e-015
lhumerus -23.6521 -6.58799 91.0824
lradius 43.6874
lwrist 9.64517
lhand -15.5086 -1.47207
lfingers 7.12502
lthumb 10.6742 28.2368
rfemur -41.8321 -2.49614 9.99981
rtibia 31.0548
rfoot -9.24483 -18.3605
rtoes -10.2624
lfemur 12.889 -1.92521 -29.6988
ltibia 6.58715
lfoot -14.1565 11.9813
ltoes -11.8314
495
root 2.16097 17.4382 7.68311 4.494 5.68065 7.12734
lowerback 6.92062 -2.20203 -9.05262
upperback -0.374327 -3.60393 1.93269
thorax -3.60089 -1.60233 7.47674
lowerneck -19.7642 3.64897 6.1534
upperneck 8.28844 4.15056 -6.40473
head 5.96626 1.70321 -2.59987
rclavicle -4.67144e-015 -1.51076e-014
rhumerus -33.9704 -16.8694 -70.3113
rradius 21.9848
rwrist -2.19905
rhand -18.1919 -1.68372
rfingers 7.12502
rthumb 8.08509 -31.5091
lclavicle -4.67144e-015 -1.51076e-014
lhumerus -23.8643 -6.74439 91.3188
lradius 43.9286
lwrist 9.55522
lhand -15.3789 -1.62434
lfingers 7.12502
lthumb 10.7993 28.078
rfemur -42.3186 -2.49507 9.84754
rtibia 32.2546
rfoot -8.96165 -18.1897
rtoes -10.0706
lfemur 13.9256 -2.08235 -29.7922
ltibia 5.60727
lfoot -13.9946 12.0541
ltoes -12.3013
496
root 2.14826 17.3915 7.85615 4.60848 5.8369 7.26858
lowerback 6.93421 -2.2565 -9.19382
upperback -0.344497 -3.68719 1.96218
thorax -3.55058 -1.64486 7.59461
lowerneck -19.8228 3.71029 6.21159
upperneck 8.11324 4.21814 -6.49169
head 5.92735 1.73059 -2.62922
rclavicle 3.97569e-015 -3.97569e-015
rhumerus -33.939 -16.8777 -70.2522
rradius 21.9734
rwrist -2.14571
rhand -18.2166 -1.67945
rfingers 7.12502
rthumb 8.06133 -31.5057
lclavicle 3.97569e-015 -3.97569e-015
lhumerus -24.1048 -6.89262 91.5629
lradius 44.1023
lwrist 9.48653
lhand -15.2878 -1.76388
lfingers 7.12502
lthumb 10.8871 27.9339
rfemur -42.7913 -2.49407 9.70683
rtibia 33.595
rfoot -8.67804 -18.0508
rtoes -9.90377
lfemur 15.0189 -2.26171 -29.8718
ltibia 4.53579
lfoot -13.7792 12.1189
ltoes -12.8011
497
root 2.13419 17.3433 8.03326 4.72414 6.01284 7.38176
lowerback 6.93519 -2.3174 -9.31035
upperback -0.341098 -3.77641 2.00398
thorax -3.52007 -1.68874 7.71225
lowerneck -19.7858 3.76547 6.27272
upperneck 7.89333 4.28103 -6.58681
head 5.85915 1.75718 -2.66291
rclavicle 5.19822e-014 -3.49861e-014
rhumerus -33.9545 -16.8577 -70.1874
rradius 21.996
rwrist -2.12885
rhand -18.2633 -1.6875
rfingers 7.12502
rthumb 8.01619 -31.5155
lclavicle 5.19822e-014 -3.49861e-014
lhumerus -24.4175 -7.04381 91.8283
lradius 44.2188
lwrist 9.43681
lhand -15.2216 -1.88602
lfingers 7.12502
lthumb 10.951 27.8084
rfemur -43.2401 -2.4968 9.60794
rtibia 35.0508
rfoot -8.42029 -17.9467
rtoes -9.70463
lfemur 16.2173 -2.46208 -29.9125
ltibia 3.28095
lfoot -13.458 12.1555
ltoes -13.3486
498
root 2.11907 17.2943 8.21421 4.84296 6.21143 7.4566
lowerback 6.92427 -2.39107 -9.38833
upperback -0.355447 -3.8787 2.05661
thorax -3.50014 -1.73857 7.82034
lowerneck -19.7165 3.82544 6.36022
upperneck 7.65158 4.34602 -6.69618
head 5.78021 1.78532 -2.70548
rclavicle 1.44119e-014 -1.43125e-014
rhumerus -34.0101 -16.7606 -70.1598
rradius 22.0941
rwrist -2.20357
rhand -18.3459 -1.71521
rfingers 7.12502
rthumb 7.93649 -31.5462
lclavicle 1.44119e-014 -1.43125e-014
lhumerus -24.7692 -7.16318 92.0835
lradius 44.2629
lwrist 9.26293
lhand -15.1109 -2.00515
lfingers 7.12502
lthumb 11.0578 27.6836
rfemur -43.6608 -2.51636 9.56932
rtibia 36.5943
rfoot -8.17662 -17.88
rtoes -9.5053
lfemur 17.7384 -2.68663 -29.9054
ltibia 1.40649
lfoot -12.8066 12.086
ltoes -13.9752
499
root 2.1026 17.2448 8.39953 4.96548 6.43103 7.49603
lowerback 6.89351 -2.46941 -9.42992
upperback -0.388745 -3.98264 2.12074
thorax -3.48978 -1.78859 7.9195
lowerneck -19.6266 3.86578 6.41852
upperneck 7.43446 4.39103 -6.77979
head 5.70346 1.80524 -2.73749
rclavicle -3.85642e-014 -5.56597e-015
rhumerus -34.0876 -16.7017 -70.1099
rradius 22.1975
rwrist -2.2974
rhand -18.4323 -1.7562
rfingers 7.12502
rthumb 7.85314 -31.5903
lclavicle -3.85642e-014 -5.56597e-015
lhumerus -25.1725 -7.28144 92.3527
lradius 44.2361
lwrist 9.02999
lhand -15.0121 -2.15909
lfingers 7.12502
lthumb 11.1531 27.5245
rfemur -44.0555 -2.56104 9.59686
rtibia 38.2042
rfoot -7.90381 -17.8533
rtoes -9.27736
lfemur 19.0294 -2.93322 -29.8516
ltibia 3.18055e-015
lfoot -12.3458 12.0743
ltoes -14.6464
500
root 2.08509 17.196 8.58929 5.08445 6.65928 7.48996
lowerback 6.84153 -2.55525 -9.42847
upperback -0.423213 -4.09062 2.19665
thorax -3.46945 -1.84193 8.00548
lowerneck -19.5527 3.90313 6.48244
upperneck 7.21498 4.42904 -6.86106
head 5.62825 1.82187 -2.77034
rclavicle -4.82053e-014 1.74931e-014
rhumerus -34.1697 -16.6475 -70.0725
rradius 22.3355
rwrist -2.44462
rhand -18.521 -1.81144
rfingers 7.12502
rthumb 7.76745 -31.6488
lclavicle -4.82053e-014 1.74931e-014
lhumerus -25.5912 -7.3641 92.6055
lradius 44.1378
lwrist 8.65998
lhand -14.8734 -2.33259
lfingers 7.12502
lthumb 11.2868 27.3437
rfemur -44.425 -2.62435 9.70325
rtibia 39.8576
rfoot -7.57128 -17.8651
rtoes -9.03275
lfemur 19.6171 -3.18618 -29.7391
ltibia -6.04305e-014
lfoot -12.5138 12.2706
ltoes -15.368
501
root 2.06703 17.1487 8.78289 5.20587 6.89849 7.46744
lowerback 6.79032 -2.64841 -9.40506
upperback -0.475218 -4.20729 2.27519
thorax -3.4673 -1.89829 8.08298
lowerneck -19.5027 3.93739 6.54013
upperneck 7.04617 4.46233 -6.91848
head 5.57189 1.83719 -2.79487
rclavicle 1.86858e-014 8.74653e-015
rhumerus -34.258 -16.6316 -70.0196
rradius 22.4563
rwrist -2.59694
rhand -18.6004 -1.82797
rfingers 7.12502
rthumb 7.6909 -31.6681
lclavicle 1.86858e-014 8.74653e-015
lhumerus -26.049 -7.42846 92.8493
lradius 43.9777
lwrist 8.22729
lhand -14.7316 -2.52088
lfingers 7.12502
lthumb 11.4236 27.1479
rfemur -44.7891 -2.7365 9.86075
rtibia 41.5417
rfoot -7.17525 -17.8909
rtoes -8.76801
lfemur 20.2106 -3.45081 -29.6047
ltibia 3.18055e-015
lfoot -12.6322 12.4538
ltoes -16.1219
